<svg xmlns="http://www.w3.org/2000/svg" xmlns:xlink="http://www.w3.org/1999/xlink" width="1920" height="1080" viewBox="0 0 1920 1080">
  <defs>
    <linearGradient id="linear-gradient" x1="0.5" x2="0.5" y2="1" gradientUnits="objectBoundingBox">
      <stop offset="0" stop-color="#004e92"/>
      <stop offset="1" stop-color="#000428"/>
    </linearGradient>
    <clipPath id="clip-Web_1920_1">
      <rect width="1920" height="1080"/>
    </clipPath>
  </defs>
  <g id="Web_1920_1" data-name="Web 1920 – 1" clip-path="url(#clip-Web_1920_1)">
    <rect width="1920" height="1080" fill="#fff"/>
    <g id="Group_1" data-name="Group 1">
      <path id="Path_1" data-name="Path 1" d="M0,0H1920V720s-41.72-95.148-424.142-95.148S838.765,757.4,533.964,757.4C53.964,757.4,0,720,0,720Z" fill="url(#linear-gradient)"/>
      <g id="Path_2" data-name="Path 2" transform="translate(-364.406 -79.666) rotate(-8)" fill="#fff" opacity="0.04">
        <path d="M 235.1617126464844 667.8340454101562 C 178.1978912353516 667.8340454101562 126.1528854370117 665.5472412109375 80.47288513183594 661.0372314453125 C 34.36141586303711 656.484619140625 -5.403291702270508 649.6516723632812 -37.71652603149414 640.7281494140625 C -54.05182266235352 636.2169799804688 -68.66593933105469 631.1113891601562 -81.15358734130859 625.5528564453125 C -93.79270172119141 619.92724609375 -104.5394668579102 613.7098999023438 -113.0953521728516 607.07373046875 C -117.4124069213867 603.7257690429688 -121.2529983520508 600.2063598632812 -124.51123046875 596.614013671875 C -127.7912292480469 592.99755859375 -130.5691680908203 589.208740234375 -132.7679901123047 585.3534545898438 C -134.9830017089844 581.4696044921875 -136.6706390380859 577.4119262695312 -137.7838745117188 573.29345703125 C -138.9068145751953 569.1387329101562 -139.4762268066406 564.8075561523438 -139.4762268066406 560.420166015625 C -139.4762268066406 551.119873046875 -138.1768188476562 538.77490234375 -135.7185821533203 524.7196044921875 C -133.0038757324219 509.1990051269531 -129.021240234375 492.2063598632812 -123.881233215332 474.2142944335938 C -118.1582946777344 454.1816711425781 -111.1777038574219 433.5784301757812 -103.1332931518555 412.9766540527344 C -94.15623474121094 389.9869689941406 -83.89888000488281 367.1360778808594 -72.64623260498047 345.0584411621094 C -60.17211532592773 320.5845947265625 -46.36005783081055 296.8475341796875 -31.59299659729004 274.5063781738281 C -15.3712329864502 249.9637145996094 2.274355411529541 226.7013702392578 20.85317993164062 205.3651885986328 C 30.7531795501709 193.9957733154297 41.10023880004883 182.9675445556641 51.60641479492188 172.5869598388672 C 62.54759216308594 161.7772521972656 73.95700073242188 151.3775482177734 85.51818084716797 141.67724609375 C 97.53376770019531 131.5954895019531 110.0405349731445 121.9946060180664 122.6911239624023 113.1407775878906 C 135.8155364990234 103.9554824829102 149.4543609619141 95.32254791259766 163.2296447753906 87.48165893554688 C 179.7964172363281 78.05195617675781 197.8817138671875 69.28665924072266 216.9831848144531 61.42901611328125 C 235.28759765625 53.89931106567383 255.0705261230469 46.9790153503418 275.7828979492188 40.8604850769043 C 295.5331726074219 35.0263671875 316.7305297851562 29.74342727661133 338.7864074707031 25.15842628479004 C 359.6846618652344 20.81431007385254 382.0126037597656 16.96019172668457 405.1502380371094 13.70313262939453 C 426.8878784179688 10.6434268951416 450.0628967285156 8.009603500366211 474.0314025878906 5.874603748321533 C 496.2799377441406 3.893132925033569 520.0178833007812 2.270780086517334 544.5861206054688 1.052250623703003 C 586.8137817382812 -1.041867017745972 633.5108032226562 -2.059808254241943 687.34521484375 -2.059808254241943 C 732.2578735351562 -2.059808254241943 776.6461181640625 -1.377161145210266 819.5725708007812 -0.7165729403495789 C 860.2420043945312 -0.09098467975854874 898.6558227539062 0.499897688627243 935.4999389648438 0.499897688627243 C 997.7002563476562 0.499897688627243 1070.323120117188 -0.6653964519500732 1157.518798828125 -3.062455177307129 C 1235.291381835938 -5.200396537780762 1317.31494140625 -8.101866722106934 1396.637573242188 -10.90774917602539 C 1476.448486328125 -13.73069095611572 1558.976684570312 -16.65010261535645 1637.502319335938 -18.80569076538086 C 1725.594970703125 -21.22392654418945 1799.093505859375 -22.39921951293945 1862.198120117188 -22.39921951293945 C 1893.159912109375 -22.39921951293945 1922.483154296875 -22.11421966552734 1949.352905273438 -21.55157279968262 C 1977.872924804688 -20.95451354980469 2004.719116210938 -20.02274894714355 2029.145874023438 -18.78216171264648 C 2054.837646484375 -17.4771614074707 2078.763671875 -15.78451442718506 2100.26025390625 -13.75098514556885 C 2122.7177734375 -11.62686729431152 2143.280517578125 -9.059514045715332 2161.376953125 -6.120396614074707 C 2180.182861328125 -3.065984725952148 2196.9365234375 0.4887211918830872 2211.172607421875 4.445191860198975 C 2225.89794921875 8.537838935852051 2238.393798828125 13.18872165679932 2248.3125 18.26872062683105 C 2253.384033203125 20.86607360839844 2257.893798828125 23.63254547119141 2261.71630859375 26.49107360839844 C 2265.587646484375 29.38607406616211 2268.864990234375 32.45842742919922 2271.457763671875 35.62313461303711 C 2274.079833984375 38.8231315612793 2276.077392578125 42.20989608764648 2277.39501953125 45.68930816650391 C 2278.728759765625 49.21166229248047 2279.405029296875 52.93342590332031 2279.405029296875 56.75136947631836 C 2279.405029296875 60.90636825561523 2278.750244140625 65.26519012451172 2277.458984375 69.70695495605469 C 2276.179443359375 74.10901641845703 2274.239990234375 78.71166229248047 2271.694580078125 83.38754272460938 C 2269.1728515625 88.01959991455078 2265.98876953125 92.84812927246094 2262.230224609375 97.73872375488281 C 2258.50830078125 102.5819549560547 2254.122802734375 107.6160736083984 2249.196533203125 112.70166015625 C 2239.48193359375 122.7298965454102 2227.29345703125 133.3416595458984 2212.9697265625 144.2425384521484 C 2198.915283203125 154.9384307861328 2182.480712890625 166.1593170166016 2164.122802734375 177.5934295654297 C 2128.21484375 199.9590148925781 2084.100341796875 223.7007751464844 2033.004638671875 248.1596069335938 C 1983.172241210938 272.0137329101562 1926.543212890625 296.6278381347656 1864.690185546875 321.3181457519531 C 1803.638793945312 345.6884155273438 1737.4658203125 370.1475524902344 1668.009887695312 394.0154724121094 C 1598.521362304688 417.8945922851562 1525.7744140625 441.1728515625 1451.7890625 463.203125 C 1376.765258789062 485.5431213378906 1300.411987304688 506.615478515625 1224.850219726562 525.835205078125 C 1147.308715820312 545.5584106445312 1070.31787109375 563.4005126953125 996.0164184570312 578.865478515625 C 925.7476196289062 593.4910888671875 854.7955322265625 606.626953125 785.1307983398438 617.9081420898438 C 717.401123046875 628.8760986328125 650.0643310546875 638.2257690429688 584.990234375 645.6978149414062 C 521.2646484375 653.014892578125 459.074951171875 658.6051635742188 400.1487731933594 662.3131103515625 C 341.9352416992188 665.9763793945312 286.425537109375 667.8340454101562 235.1617126464844 667.8340454101562 Z" stroke="none"/>
        <path d="M 1862.19873046875 -21.8995361328125 C 1799.10546875 -21.89862060546875 1725.619873046875 -20.7227783203125 1637.542602539062 -18.3048095703125 C 1559.028198242188 -16.1495361328125 1476.51025390625 -13.23095703125 1396.709350585938 -10.4083251953125 C 1317.37646484375 -7.60247802734375 1235.342529296875 -4.70098876953125 1157.558471679688 -2.562744140625 C 1070.347534179688 -0.1654052734375 997.711669921875 0.9998779296875 935.5 0.9998779296875 C 898.65234375 0.9998779296875 860.2364501953125 0.40899658203125 819.565185546875 -0.216552734375 C 776.6402587890625 -0.87689208984375 732.2537841796875 -1.559814453125 687.34521484375 -1.559814453125 C 633.51904296875 -1.559814453125 586.8302001953125 -0.54217529296875 544.611083984375 1.5516357421875 C 520.04931640625 2.7698974609375 496.317626953125 4.3919677734375 474.0755615234375 6.37286376953125 C 450.1158447265625 8.5069580078125 426.9493408203125 11.13958740234375 405.219970703125 14.19842529296875 C 382.0931396484375 17.4537353515625 359.77587890625 21.30609130859375 338.88818359375 25.64813232421875 C 316.8458251953125 30.23016357421875 295.6617431640625 35.50958251953125 275.9246826171875 41.3402099609375 C 255.228759765625 47.4537353515625 235.4620361328125 54.36810302734375 217.1734619140625 61.891357421875 C 198.0914306640625 69.7410888671875 180.0252685546875 78.4969482421875 163.47705078125 87.9163818359375 C 149.7152099609375 95.7496337890625 136.08935546875 104.3740234375 122.9779052734375 113.5504760742188 C 110.339111328125 122.3957824707031 97.8441162109375 131.9878540039062 85.83935546875 142.0604858398438 C 74.288818359375 151.751953125 62.889404296875 162.1422424316406 51.957763671875 172.9428405761719 C 41.46044921875 183.3146057128906 31.1220703125 194.3334350585938 21.230224609375 205.6934204101562 C 2.665771484375 227.0131225585938 -14.96630859375 250.2578430175781 -31.176025390625 274.7819519042969 C -45.932373046875 297.1075439453125 -59.7353515625 320.8284301757812 -72.20068359375 345.2854919433594 C -83.446044921875 367.3484191894531 -93.696533203125 390.184326171875 -102.66748046875 413.158447265625 C -110.706298828125 433.7457885742188 -117.681884765625 454.3340148925781 -123.400390625 474.3516845703125 C -128.53564453125 492.3269653320312 -132.514404296875 509.3019409179688 -135.225830078125 524.8057861328125 C -137.679443359375 538.8328247070312 -138.976318359375 551.1481323242188 -138.976318359375 560.419921875 C -138.976318359375 564.7631225585938 -138.41259765625 569.0504760742188 -137.30126953125 573.162841796875 C -136.198974609375 577.240478515625 -134.527587890625 581.2584228515625 -132.33349609375 585.10546875 C -130.153076171875 588.9293212890625 -127.396484375 592.6884155273438 -124.140625 596.2781372070312 C -120.902099609375 599.8489990234375 -117.0830078125 603.34814453125 -112.788818359375 606.6784057617188 C -104.2646484375 613.2899169921875 -93.552734375 619.4863891601562 -80.950439453125 625.0960693359375 C -68.4853515625 630.644287109375 -53.894775390625 635.7416381835938 -37.58349609375 640.24609375 C -5.297607421875 649.1619873046875 34.438720703125 655.9896240234375 80.52197265625 660.539306640625 C 126.185791015625 665.0478515625 178.214111328125 667.333740234375 235.1617431640625 667.333740234375 C 286.4149169921875 667.333740234375 341.9140625 665.4766845703125 400.1173095703125 661.8140258789062 C 459.034912109375 658.1063842773438 521.216064453125 652.5169677734375 584.9332275390625 645.2008056640625 C 649.9996337890625 637.7299194335938 717.3287353515625 628.381103515625 785.05078125 617.414306640625 C 854.7081298828125 606.1343383789062 925.65283203125 592.9998779296875 995.914306640625 578.3757934570312 C 1070.208740234375 562.9125366210938 1147.192626953125 545.072265625 1224.72705078125 525.3507690429688 C 1300.281982421875 506.1325378417969 1376.628784179688 485.0619506835938 1451.646484375 462.7239990234375 C 1525.625 440.6954956054688 1598.365478515625 417.4193115234375 1667.847290039062 393.5425415039062 C 1737.295532226562 369.67724609375 1803.460815429688 345.2210693359375 1864.504638671875 320.8537292480469 C 1926.347290039062 296.1675415039062 1982.966064453125 271.5578308105469 2032.788818359375 247.7087097167969 C 2083.86767578125 223.2578430175781 2127.966064453125 199.52490234375 2163.8583984375 177.1690063476562 C 2182.203125 165.7431335449219 2198.624755859375 154.5310668945312 2212.666748046875 143.8446044921875 C 2226.970703125 132.9590148925781 2239.14013671875 122.364013671875 2248.83740234375 112.35400390625 C 2258.712646484375 102.1596069335938 2266.255126953125 92.33343505859375 2271.255615234375 83.1484375 C 2273.78369140625 78.50433349609375 2275.70947265625 73.93487548828125 2276.97900390625 69.56756591796875 C 2278.257080078125 65.17108154296875 2278.905029296875 60.8590087890625 2278.905029296875 56.7513427734375 C 2278.905029296875 52.9940185546875 2278.23974609375 49.33197021484375 2276.92724609375 45.8660888671875 C 2275.629150390625 42.43756103515625 2273.65869140625 39.09783935546875 2271.071044921875 35.9395751953125 C 2268.504150390625 32.806396484375 2265.255859375 29.761962890625 2261.4169921875 26.89105224609375 C 2257.61669921875 24.04931640625 2253.131103515625 21.29754638671875 2248.084716796875 18.71282958984375 C 2238.19580078125 13.64813232421875 2225.731689453125 9.00958251953125 2211.038818359375 4.92578125 C 2196.8203125 0.9739990234375 2180.084716796875 -2.57684326171875 2161.29736328125 -5.62835693359375 C 2143.21142578125 -8.56597900390625 2122.659912109375 -11.13189697265625 2100.21337890625 -13.255126953125 C 2078.72412109375 -15.2877197265625 2054.80517578125 -16.97979736328125 2029.12109375 -18.28448486328125 C 2004.69873046875 -19.5247802734375 1977.857543945312 -20.456298828125 1949.342895507812 -21.05303955078125 C 1922.47607421875 -21.6151123046875 1893.156372070312 -21.90008544921875 1862.19873046875 -21.8995361328125 M 1862.198852539062 -22.89947509765625 C 2103.280517578125 -22.9031982421875 2279.905029296875 -6.02178955078125 2279.905029296875 56.7513427734375 C 2279.905029296875 192.6134338378906 1601.088500976562 453.4378356933594 996.1181640625 579.3549194335938 C 709.76904296875 638.9548950195312 439.9305419921875 668.3338012695312 235.1617431640625 668.3338012695312 C 7.315185546875 668.3338012695312 -139.976318359375 631.974853515625 -139.976318359375 560.419921875 C -139.976318359375 488.2772521972656 -62.603515625 215.4505004882812 162.9822998046875 87.0472412109375 C 299.0123291015625 9.61895751953125 497.7598876953125 -2.55987548828125 687.3453369140625 -2.55987548828125 C 774.30615234375 -2.55987548828125 859.3033447265625 -0.0001220703125 935.5 -0.0001220703125 C 1213.445556640625 -0.0001220703125 1581.49951171875 -22.8951416015625 1862.198852539062 -22.89947509765625 Z" stroke="none" fill="#707070"/>
      </g>
      <g id="Path_3" data-name="Path 3" transform="matrix(0.995, -0.105, 0.105, 0.995, -387.777, 3.61)" fill="#fff" opacity="0.04">
        <path d="M 235.1617126464844 667.8340454101562 C 178.1978912353516 667.8340454101562 126.1528854370117 665.5472412109375 80.47288513183594 661.0372314453125 C 34.36141586303711 656.484619140625 -5.403291702270508 649.6516723632812 -37.71652603149414 640.7281494140625 C -54.05182266235352 636.2169799804688 -68.66593933105469 631.1113891601562 -81.15358734130859 625.5528564453125 C -93.79270172119141 619.92724609375 -104.5394668579102 613.7098999023438 -113.0953521728516 607.07373046875 C -117.4124069213867 603.7257690429688 -121.2529983520508 600.2063598632812 -124.51123046875 596.614013671875 C -127.7912292480469 592.99755859375 -130.5691680908203 589.208740234375 -132.7679901123047 585.3534545898438 C -134.9830017089844 581.4696044921875 -136.6706390380859 577.4119262695312 -137.7838745117188 573.29345703125 C -138.9068145751953 569.1387329101562 -139.4762268066406 564.8075561523438 -139.4762268066406 560.420166015625 C -139.4762268066406 551.119873046875 -138.1768188476562 538.77490234375 -135.7185821533203 524.7196044921875 C -133.0038757324219 509.1990051269531 -129.021240234375 492.2063598632812 -123.881233215332 474.2142944335938 C -118.1582946777344 454.1816711425781 -111.1777038574219 433.5784301757812 -103.1332931518555 412.9766540527344 C -94.15623474121094 389.9869689941406 -83.89888000488281 367.1360778808594 -72.64623260498047 345.0584411621094 C -60.17211532592773 320.5845947265625 -46.36005783081055 296.8475341796875 -31.59299659729004 274.5063781738281 C -15.3712329864502 249.9637145996094 2.274355411529541 226.7013702392578 20.85317993164062 205.3651885986328 C 30.7531795501709 193.9957733154297 41.10023880004883 182.9675445556641 51.60641479492188 172.5869598388672 C 62.54759216308594 161.7772521972656 73.95700073242188 151.3775482177734 85.51818084716797 141.67724609375 C 97.53376770019531 131.5954895019531 110.0405349731445 121.9946060180664 122.6911239624023 113.1407775878906 C 135.8155364990234 103.9554824829102 149.4543609619141 95.32254791259766 163.2296447753906 87.48165893554688 C 179.7964172363281 78.05195617675781 197.8817138671875 69.28665924072266 216.9831848144531 61.42901611328125 C 235.28759765625 53.89931106567383 255.0705261230469 46.9790153503418 275.7828979492188 40.8604850769043 C 295.5331726074219 35.0263671875 316.7305297851562 29.74342727661133 338.7864074707031 25.15842628479004 C 359.6846618652344 20.81431007385254 382.0126037597656 16.96019172668457 405.1502380371094 13.70313262939453 C 426.8878784179688 10.6434268951416 450.0628967285156 8.009603500366211 474.0314025878906 5.874603748321533 C 496.2799377441406 3.893132925033569 520.0178833007812 2.270780086517334 544.5861206054688 1.052250623703003 C 586.8137817382812 -1.041867017745972 633.5108032226562 -2.059808254241943 687.34521484375 -2.059808254241943 C 732.2578735351562 -2.059808254241943 776.6461181640625 -1.377161145210266 819.5725708007812 -0.7165729403495789 C 860.2420043945312 -0.09098467975854874 898.6558227539062 0.499897688627243 935.4999389648438 0.499897688627243 C 997.7002563476562 0.499897688627243 1070.323120117188 -0.6653964519500732 1157.518798828125 -3.062455177307129 C 1235.291381835938 -5.200396537780762 1317.31494140625 -8.101866722106934 1396.637573242188 -10.90774917602539 C 1476.448486328125 -13.73069095611572 1558.976684570312 -16.65010261535645 1637.502319335938 -18.80569076538086 C 1725.594970703125 -21.22392654418945 1799.093505859375 -22.39921951293945 1862.198120117188 -22.39921951293945 C 1893.159912109375 -22.39921951293945 1922.483154296875 -22.11421966552734 1949.352905273438 -21.55157279968262 C 1977.872924804688 -20.95451354980469 2004.719116210938 -20.02274894714355 2029.145874023438 -18.78216171264648 C 2054.837646484375 -17.4771614074707 2078.763671875 -15.78451442718506 2100.26025390625 -13.75098514556885 C 2122.7177734375 -11.62686729431152 2143.280517578125 -9.059514045715332 2161.376953125 -6.120396614074707 C 2180.182861328125 -3.065984725952148 2196.9365234375 0.4887211918830872 2211.172607421875 4.445191860198975 C 2225.89794921875 8.537838935852051 2238.393798828125 13.18872165679932 2248.3125 18.26872062683105 C 2253.384033203125 20.86607360839844 2257.893798828125 23.63254547119141 2261.71630859375 26.49107360839844 C 2265.587646484375 29.38607406616211 2268.864990234375 32.45842742919922 2271.457763671875 35.62313461303711 C 2274.079833984375 38.8231315612793 2276.077392578125 42.20989608764648 2277.39501953125 45.68930816650391 C 2278.728759765625 49.21166229248047 2279.405029296875 52.93342590332031 2279.405029296875 56.75136947631836 C 2279.405029296875 60.90636825561523 2278.750244140625 65.26519012451172 2277.458984375 69.70695495605469 C 2276.179443359375 74.10901641845703 2274.239990234375 78.71166229248047 2271.694580078125 83.38754272460938 C 2269.1728515625 88.01959991455078 2265.98876953125 92.84812927246094 2262.230224609375 97.73872375488281 C 2258.50830078125 102.5819549560547 2254.122802734375 107.6160736083984 2249.196533203125 112.70166015625 C 2239.48193359375 122.7298965454102 2227.29345703125 133.3416595458984 2212.9697265625 144.2425384521484 C 2198.915283203125 154.9384307861328 2182.480712890625 166.1593170166016 2164.122802734375 177.5934295654297 C 2128.21484375 199.9590148925781 2084.100341796875 223.7007751464844 2033.004638671875 248.1596069335938 C 1983.172241210938 272.0137329101562 1926.543212890625 296.6278381347656 1864.690185546875 321.3181457519531 C 1803.638793945312 345.6884155273438 1737.4658203125 370.1475524902344 1668.009887695312 394.0154724121094 C 1598.521362304688 417.8945922851562 1525.7744140625 441.1728515625 1451.7890625 463.203125 C 1376.765258789062 485.5431213378906 1300.411987304688 506.615478515625 1224.850219726562 525.835205078125 C 1147.308715820312 545.5584106445312 1070.31787109375 563.4005126953125 996.0164184570312 578.865478515625 C 925.7476196289062 593.4910888671875 854.7955322265625 606.626953125 785.1307983398438 617.9081420898438 C 717.401123046875 628.8760986328125 650.0643310546875 638.2257690429688 584.990234375 645.6978149414062 C 521.2646484375 653.014892578125 459.074951171875 658.6051635742188 400.1487731933594 662.3131103515625 C 341.9352416992188 665.9763793945312 286.425537109375 667.8340454101562 235.1617126464844 667.8340454101562 Z" stroke="none"/>
        <path d="M 1862.19873046875 -21.8995361328125 C 1799.10546875 -21.89862060546875 1725.619873046875 -20.7227783203125 1637.542602539062 -18.3048095703125 C 1559.028198242188 -16.1495361328125 1476.51025390625 -13.23095703125 1396.709350585938 -10.4083251953125 C 1317.37646484375 -7.60247802734375 1235.342529296875 -4.70098876953125 1157.558471679688 -2.562744140625 C 1070.347534179688 -0.1654052734375 997.711669921875 0.9998779296875 935.5 0.9998779296875 C 898.65234375 0.9998779296875 860.2364501953125 0.40899658203125 819.565185546875 -0.216552734375 C 776.6402587890625 -0.87689208984375 732.2537841796875 -1.559814453125 687.34521484375 -1.559814453125 C 633.51904296875 -1.559814453125 586.8302001953125 -0.54217529296875 544.611083984375 1.5516357421875 C 520.04931640625 2.7698974609375 496.317626953125 4.3919677734375 474.0755615234375 6.37286376953125 C 450.1158447265625 8.5069580078125 426.9493408203125 11.13958740234375 405.219970703125 14.19842529296875 C 382.0931396484375 17.4537353515625 359.77587890625 21.30609130859375 338.88818359375 25.64813232421875 C 316.8458251953125 30.23016357421875 295.6617431640625 35.50958251953125 275.9246826171875 41.3402099609375 C 255.228759765625 47.4537353515625 235.4620361328125 54.36810302734375 217.1734619140625 61.891357421875 C 198.0914306640625 69.7410888671875 180.0252685546875 78.4969482421875 163.47705078125 87.9163818359375 C 149.7152099609375 95.7496337890625 136.08935546875 104.3740234375 122.9779052734375 113.5504760742188 C 110.339111328125 122.3957824707031 97.8441162109375 131.9878540039062 85.83935546875 142.0604858398438 C 74.288818359375 151.751953125 62.889404296875 162.1422424316406 51.957763671875 172.9428405761719 C 41.46044921875 183.3146057128906 31.1220703125 194.3334350585938 21.230224609375 205.6934204101562 C 2.665771484375 227.0131225585938 -14.96630859375 250.2578430175781 -31.176025390625 274.7819519042969 C -45.932373046875 297.1075439453125 -59.7353515625 320.8284301757812 -72.20068359375 345.2854919433594 C -83.446044921875 367.3484191894531 -93.696533203125 390.184326171875 -102.66748046875 413.158447265625 C -110.706298828125 433.7457885742188 -117.681884765625 454.3340148925781 -123.400390625 474.3516845703125 C -128.53564453125 492.3269653320312 -132.514404296875 509.3019409179688 -135.225830078125 524.8057861328125 C -137.679443359375 538.8328247070312 -138.976318359375 551.1481323242188 -138.976318359375 560.419921875 C -138.976318359375 564.7631225585938 -138.41259765625 569.0504760742188 -137.30126953125 573.162841796875 C -136.198974609375 577.240478515625 -134.527587890625 581.2584228515625 -132.33349609375 585.10546875 C -130.153076171875 588.9293212890625 -127.396484375 592.6884155273438 -124.140625 596.2781372070312 C -120.902099609375 599.8489990234375 -117.0830078125 603.34814453125 -112.788818359375 606.6784057617188 C -104.2646484375 613.2899169921875 -93.552734375 619.4863891601562 -80.950439453125 625.0960693359375 C -68.4853515625 630.644287109375 -53.894775390625 635.7416381835938 -37.58349609375 640.24609375 C -5.297607421875 649.1619873046875 34.438720703125 655.9896240234375 80.52197265625 660.539306640625 C 126.185791015625 665.0478515625 178.214111328125 667.333740234375 235.1617431640625 667.333740234375 C 286.4149169921875 667.333740234375 341.9140625 665.4766845703125 400.1173095703125 661.8140258789062 C 459.034912109375 658.1063842773438 521.216064453125 652.5169677734375 584.9332275390625 645.2008056640625 C 649.9996337890625 637.7299194335938 717.3287353515625 628.381103515625 785.05078125 617.414306640625 C 854.7081298828125 606.1343383789062 925.65283203125 592.9998779296875 995.914306640625 578.3757934570312 C 1070.208740234375 562.9125366210938 1147.192626953125 545.072265625 1224.72705078125 525.3507690429688 C 1300.281982421875 506.1325378417969 1376.628784179688 485.0619506835938 1451.646484375 462.7239990234375 C 1525.625 440.6954956054688 1598.365478515625 417.4193115234375 1667.847290039062 393.5425415039062 C 1737.295532226562 369.67724609375 1803.460815429688 345.2210693359375 1864.504638671875 320.8537292480469 C 1926.347290039062 296.1675415039062 1982.966064453125 271.5578308105469 2032.788818359375 247.7087097167969 C 2083.86767578125 223.2578430175781 2127.966064453125 199.52490234375 2163.8583984375 177.1690063476562 C 2182.203125 165.7431335449219 2198.624755859375 154.5310668945312 2212.666748046875 143.8446044921875 C 2226.970703125 132.9590148925781 2239.14013671875 122.364013671875 2248.83740234375 112.35400390625 C 2258.712646484375 102.1596069335938 2266.255126953125 92.33343505859375 2271.255615234375 83.1484375 C 2273.78369140625 78.50433349609375 2275.70947265625 73.93487548828125 2276.97900390625 69.56756591796875 C 2278.257080078125 65.17108154296875 2278.905029296875 60.8590087890625 2278.905029296875 56.7513427734375 C 2278.905029296875 52.9940185546875 2278.23974609375 49.33197021484375 2276.92724609375 45.8660888671875 C 2275.629150390625 42.43756103515625 2273.65869140625 39.09783935546875 2271.071044921875 35.9395751953125 C 2268.504150390625 32.806396484375 2265.255859375 29.761962890625 2261.4169921875 26.89105224609375 C 2257.61669921875 24.04931640625 2253.131103515625 21.29754638671875 2248.084716796875 18.71282958984375 C 2238.19580078125 13.64813232421875 2225.731689453125 9.00958251953125 2211.038818359375 4.92578125 C 2196.8203125 0.9739990234375 2180.084716796875 -2.57684326171875 2161.29736328125 -5.62835693359375 C 2143.21142578125 -8.56597900390625 2122.659912109375 -11.13189697265625 2100.21337890625 -13.255126953125 C 2078.72412109375 -15.2877197265625 2054.80517578125 -16.97979736328125 2029.12109375 -18.28448486328125 C 2004.69873046875 -19.5247802734375 1977.857543945312 -20.456298828125 1949.342895507812 -21.05303955078125 C 1922.47607421875 -21.6151123046875 1893.156372070312 -21.90008544921875 1862.19873046875 -21.8995361328125 M 1862.198852539062 -22.89947509765625 C 2103.280517578125 -22.9031982421875 2279.905029296875 -6.02178955078125 2279.905029296875 56.7513427734375 C 2279.905029296875 192.6134338378906 1601.088500976562 453.4378356933594 996.1181640625 579.3549194335938 C 709.76904296875 638.9548950195312 439.9305419921875 668.3338012695312 235.1617431640625 668.3338012695312 C 7.315185546875 668.3338012695312 -139.976318359375 631.974853515625 -139.976318359375 560.419921875 C -139.976318359375 488.2772521972656 -62.603515625 215.4505004882812 162.9822998046875 87.0472412109375 C 299.0123291015625 9.61895751953125 497.7598876953125 -2.55987548828125 687.3453369140625 -2.55987548828125 C 774.30615234375 -2.55987548828125 859.3033447265625 -0.0001220703125 935.5 -0.0001220703125 C 1213.445556640625 -0.0001220703125 1581.49951171875 -22.8951416015625 1862.198852539062 -22.89947509765625 Z" stroke="none" fill="#707070"/>
      </g>
      <g id="Path_4" data-name="Path 4" transform="translate(-165.406 -168.405) rotate(-3)" fill="#fff" opacity="0.05">
        <path d="M 235.1617126464844 897.83837890625 C 178.2031860351562 897.83837890625 126.1637649536133 894.7913208007812 80.48876953125 888.7813110351562 C 57.59523773193359 885.7689208984375 36.0490608215332 881.9698486328125 16.44935607910156 877.4898071289062 C -3.300350427627563 872.9757080078125 -21.51093864440918 867.6701049804688 -37.67711639404297 861.7200927734375 C -54.0077018737793 855.7098388671875 -68.61770629882812 848.9071655273438 -81.10182189941406 841.5009765625 C -87.39564514160156 837.7674560546875 -93.26799774169922 833.8089599609375 -98.55593872070312 829.7354125976562 C -103.8788833618164 825.6348266601562 -108.7527008056641 821.3074951171875 -113.0424118041992 816.8733520507812 C -117.3624114990234 812.4077758789062 -121.2065277099609 807.71337890625 -124.4679946899414 802.9207153320312 C -127.7544708251953 798.09130859375 -130.5385894775391 793.0307006835938 -132.7427062988281 787.880126953125 C -134.9653472900391 782.6859741210938 -136.6588745117188 777.2583618164062 -137.7765197753906 771.7483520507812 C -138.9044647216797 766.1868896484375 -139.4762268066406 760.3895263671875 -139.4762268066406 754.5169067382812 C -139.4762268066406 742.105712890625 -138.1756439208984 725.6356811523438 -135.7153472900391 706.887451171875 C -132.9994659423828 686.1927490234375 -129.0150604248047 663.5365600585938 -123.8730010986328 639.54833984375 C -118.1482925415039 612.8421630859375 -111.165641784668 585.3751220703125 -103.1191711425781 557.9107055664062 C -94.14005279541016 527.263671875 -83.88005828857422 496.8015747070312 -72.62476348876953 467.3706970214844 C -60.147705078125 434.7460021972656 -46.3324089050293 403.1033630371094 -31.56211471557617 373.3212890625 C -23.64182090759277 357.3512878417969 -15.31387996673584 341.6539306640625 -6.809762001037598 326.6659851074219 C 2.084943771362305 310.9901123046875 11.4058256149292 295.6780700683594 20.89464950561523 281.1551208496094 C 30.79641342163086 265.9998168945312 41.14523696899414 251.2995300292969 51.65317916870117 237.4627685546875 C 62.5958251953125 223.0539398193359 74.00700378417969 209.1918792724609 85.56935882568359 196.2624664306641 C 97.58612060546875 182.8248291015625 110.0940628051758 170.0277709960938 122.7455291748047 158.2271728515625 C 135.8699493408203 145.9854125976562 149.5093536376953 134.4798278808594 163.2843627929688 124.0298233032227 C 171.6531829833984 117.6815872192383 180.4652404785156 111.515998840332 189.4764099121094 105.7051162719727 C 198.3064117431641 100.0107040405273 207.577880859375 94.49481964111328 217.0334777832031 89.31099700927734 C 226.2896423339844 84.23628997802734 235.9852447509766 79.33570098876953 245.850830078125 74.74481964111328 C 255.4978790283203 70.25570678710938 265.5823059082031 65.93482208251953 275.8240661621094 61.90276336669922 C 295.5711059570312 54.12805938720703 316.7652282714844 47.08835220336914 338.8172912597656 40.97893905639648 C 359.7125854492188 35.19011688232422 382.03759765625 30.05423355102539 405.1717224121094 25.7142333984375 C 426.9067077636719 21.63658714294434 450.0790710449219 18.12688064575195 474.0446472167969 15.28217506408691 C 496.2908325195312 12.64158725738525 520.0267333984375 10.47923374176025 544.5928955078125 8.855704307556152 C 567.29345703125 7.355116367340088 590.6420288085938 6.292763233184814 615.9734497070312 5.606881141662598 C 638.3184814453125 5.002175331115723 661.6637573242188 4.708351612091064 687.3434448242188 4.708351612091064 C 732.254638671875 4.708351612091064 776.642578125 5.618351459503174 819.5693359375 6.498351573944092 C 860.2396240234375 7.332175254821777 898.6546630859375 8.11982250213623 935.4999389648438 8.11982250213623 C 968.822021484375 8.11982250213623 1004.097900390625 7.692763328552246 1043.342895507812 6.814527988433838 C 1078.312622070312 6.031880855560303 1115.661376953125 4.905704498291016 1157.5234375 3.371881008148193 C 1235.296997070312 0.5224692821502686 1317.32080078125 -3.344295501708984 1396.64404296875 -7.084001541137695 C 1476.454956054688 -10.84635448455811 1558.98291015625 -14.73694229125977 1637.507934570312 -17.60988426208496 C 1679.784301757812 -19.15664863586426 1717.536987304688 -20.292236328125 1752.923217773438 -21.08194160461426 C 1792.6494140625 -21.96841239929199 1828.39404296875 -22.39929580688477 1862.19970703125 -22.39929580688477 C 1893.160278320312 -22.39929580688477 1922.482299804688 -22.01929473876953 1949.350830078125 -21.26959037780762 C 1977.869018554688 -20.47400093078613 2004.713500976562 -19.23223686218262 2029.138793945312 -17.57870674133301 C 2054.827880859375 -15.83958911895752 2078.751708984375 -13.5840015411377 2100.245849609375 -10.87429523468018 C 2122.699951171875 -8.043706893920898 2143.259033203125 -4.622824668884277 2161.35205078125 -0.7063542604446411 C 2180.15283203125 3.363351583480835 2196.901611328125 8.099528312683105 2211.13330078125 13.37099838256836 C 2218.4375 16.07658767700195 2225.2431640625 18.98335075378418 2231.361083984375 22.0109977722168 C 2237.575927734375 25.0862922668457 2243.2607421875 28.37541007995605 2248.2587890625 31.78688049316406 C 2253.32958984375 35.24835205078125 2257.839599609375 38.93540954589844 2261.6630859375 42.74629211425781 C 2265.538818359375 46.60864639282227 2268.82080078125 50.70982360839844 2271.418701171875 54.93570327758789 C 2274.051025390625 59.21746826171875 2276.057373046875 63.7515869140625 2277.38134765625 68.41246795654297 C 2278.72412109375 73.13805389404297 2279.405029296875 78.13188171386719 2279.405029296875 83.25482177734375 C 2279.405029296875 88.81952667236328 2278.747314453125 94.65570831298828 2277.450927734375 100.6009979248047 C 2276.1669921875 106.4854125976562 2274.22265625 112.636589050293 2271.6708984375 118.8833541870117 C 2269.145263671875 125.0665893554688 2265.956787109375 131.5107116699219 2262.193359375 138.0365905761719 C 2258.468505859375 144.4962921142578 2254.08056640625 151.2104034423828 2249.151123046875 157.9921722412109 C 2239.433837890625 171.3607025146484 2227.24267578125 185.5068817138672 2212.91650390625 200.0374755859375 C 2198.861083984375 214.2930603027344 2182.426025390625 229.2480621337891 2164.06787109375 244.4874725341797 C 2128.16015625 274.2945251464844 2084.04638671875 305.9360046386719 2032.95166015625 338.5327758789062 C 1983.120239257812 370.3236389160156 1926.492309570312 403.1271667480469 1864.640869140625 436.032470703125 C 1803.590209960938 468.5112915039062 1737.418823242188 501.1080627441406 1667.96435546875 532.91748046875 C 1598.47705078125 564.7415771484375 1525.731079101562 595.76513671875 1451.747314453125 625.1254272460938 C 1376.724975585938 654.8983764648438 1300.373168945312 682.9818725585938 1224.813232421875 708.5963134765625 C 1147.273193359375 734.8818969726562 1070.284057617188 758.6600952148438 995.984619140625 779.2703857421875 C 925.7178955078125 798.7619018554688 854.7678833007812 816.2683715820312 785.105224609375 831.302734375 C 717.3778686523438 845.9197998046875 650.0431518554688 858.380126953125 584.9716796875 868.3380737304688 C 521.248779296875 878.0895385742188 459.0617065429688 885.53955078125 400.1384582519531 890.4813232421875 C 341.9281921386719 895.363037109375 286.4219970703125 897.83837890625 235.1617126464844 897.83837890625 Z" stroke="none"/>
        <path d="M 1862.198486328125 -21.8992919921875 C 1828.400268554688 -21.898681640625 1792.663208007812 -21.46722412109375 1752.9453125 -20.58074951171875 C 1717.565185546875 -19.790771484375 1679.819091796875 -18.6551513671875 1637.549926757812 -17.10870361328125 C 1559.03662109375 -14.236328125 1476.51904296875 -10.34661865234375 1396.71826171875 -6.58489990234375 C 1317.38525390625 -2.84515380859375 1235.35107421875 1.0216064453125 1157.56640625 3.87127685546875 C 1115.697021484375 5.40509033203125 1078.341674804688 6.53131103515625 1043.365844726562 7.31396484375 C 1004.112548828125 8.19244384765625 968.829345703125 8.6195068359375 935.5 8.6195068359375 C 898.649658203125 8.6195068359375 860.2325439453125 7.8319091796875 819.5599365234375 6.998046875 C 776.6361083984375 6.1180419921875 732.2510986328125 5.20806884765625 687.344970703125 5.20806884765625 C 661.669921875 5.20806884765625 638.3291015625 5.50189208984375 615.988525390625 6.1065673828125 C 590.6634521484375 6.79217529296875 567.3211669921875 7.85455322265625 544.626953125 9.35455322265625 C 520.0697021484375 10.97747802734375 496.34228515625 13.138916015625 474.1046142578125 15.77862548828125 C 450.14990234375 18.62188720703125 426.98876953125 22.130126953125 405.2646484375 26.20538330078125 C 382.14404296875 30.54302978515625 359.8331298828125 35.6754150390625 338.951416015625 41.460693359375 C 316.915771484375 47.56573486328125 295.738525390625 54.59979248046875 276.007568359375 62.36773681640625 C 265.77490234375 66.39630126953125 255.69970703125 70.71307373046875 246.06201171875 75.19805908203125 C 236.2061767578125 79.78424072265625 226.5205078125 84.68011474609375 217.2738037109375 89.74951171875 C 207.8287353515625 94.927734375 198.567626953125 100.4371948242188 189.747314453125 106.1251220703125 C 180.7469482421875 111.9295043945312 171.9451904296875 118.0874633789062 163.586669921875 124.4283447265625 C 149.824951171875 134.8677368164062 136.19873046875 146.3624877929688 123.086669921875 158.5927734375 C 110.4461669921875 170.3833618164062 97.94873046875 183.1692504882812 85.94189453125 196.595703125 C 74.388427734375 209.515380859375 62.986083984375 223.3668823242188 52.051513671875 237.76513671875 C 41.550537109375 251.5927734375 31.20849609375 266.2830810546875 21.313232421875 281.4286499023438 C 11.830322265625 295.9427490234375 2.5146484375 311.2457275390625 -6.374755859375 326.9127807617188 C -14.87451171875 341.8927612304688 -23.197998046875 357.5815734863281 -31.1142578125 373.5436401367188 C -45.87744140625 403.311279296875 -59.6865234375 434.9395141601562 -72.15771484375 467.5492248535156 C -83.408203125 496.9677734375 -93.663818359375 527.4168701171875 -102.63916015625 558.05126953125 C -110.682373046875 585.50390625 -117.662109375 612.9589233398438 -123.38427734375 639.6533203125 C -128.523193359375 663.6283569335938 -132.50537109375 686.27099609375 -135.219482421875 706.9527587890625 C -137.677001953125 725.6795043945312 -138.976318359375 742.127197265625 -138.976318359375 754.5169067382812 C -138.976318359375 760.3563232421875 -138.40771484375 766.1201171875 -137.28662109375 771.64892578125 C -136.175537109375 777.125732421875 -134.4921875 782.5203857421875 -132.282958984375 787.683349609375 C -130.091552734375 792.8045043945312 -127.322998046875 797.8366088867188 -124.0546875 802.6392211914062 C -120.80908203125 807.4086303710938 -116.9833984375 812.0806884765625 -112.68310546875 816.525390625 C -108.410400390625 820.9421997070312 -103.554443359375 825.2533569335938 -98.2509765625 829.3392333984375 C -92.978759765625 833.400390625 -87.123291015625 837.3477783203125 -80.846923828125 841.0709838867188 C -68.388916015625 848.4616088867188 -53.80615234375 855.2509765625 -37.504150390625 861.250732421875 C -21.3583984375 867.193359375 -3.16796875 872.4930419921875 16.560791015625 877.00244140625 C 36.145263671875 881.4789428710938 57.67578125 885.275146484375 80.553955078125 888.285400390625 C 126.207275390625 894.29248046875 178.2249755859375 897.33837890625 235.1617431640625 897.33837890625 C 286.408203125 897.33837890625 341.9002685546875 894.8636474609375 400.0966796875 889.9827880859375 C 459.0087890625 885.0421752929688 521.184326171875 877.5933227539062 584.8961181640625 867.8436279296875 C 649.9576416015625 857.887451171875 717.2823486328125 845.428955078125 785 830.81396484375 C 854.65283203125 815.7816162109375 925.593505859375 798.2774658203125 995.850830078125 778.7886352539062 C 1070.141357421875 758.1807250976562 1147.121337890625 734.4053955078125 1224.652587890625 708.1227416992188 C 1300.204345703125 682.510986328125 1376.548095703125 654.430419921875 1451.562866210938 624.6607055664062 C 1525.538818359375 595.3033447265625 1598.2763671875 564.28369140625 1667.756103515625 532.4627685546875 C 1737.20166015625 500.6577758789062 1803.364013671875 468.0651245117188 1864.40576171875 435.5910034179688 C 1926.245849609375 402.69189453125 1982.8623046875 369.8951110839844 2032.6826171875 338.1112976074219 C 2083.759765625 305.5256958007812 2127.856689453125 273.8966064453125 2163.74853515625 244.102783203125 C 2182.093994140625 228.8739624023438 2198.5166015625 213.9301147460938 2212.560302734375 199.686279296875 C 2226.869140625 185.1736450195312 2239.0439453125 171.0465698242188 2248.746826171875 157.6980590820312 C 2253.665771484375 150.930419921875 2258.04443359375 144.2313232421875 2261.76025390625 137.786865234375 C 2265.51220703125 131.2803955078125 2268.69091796875 124.8568725585938 2271.208251953125 118.6942138671875 C 2273.748779296875 112.4742431640625 2275.6845703125 106.3507080078125 2276.96240234375 100.4942626953125 C 2278.25146484375 94.58392333984375 2278.905029296875 88.783935546875 2278.905029296875 83.25482177734375 C 2278.905029296875 78.17803955078125 2278.23046875 73.23040771484375 2276.900634765625 68.5489501953125 C 2275.5888671875 63.9324951171875 2273.60107421875 59.44012451171875 2270.992919921875 55.19720458984375 C 2268.41552734375 51.005126953125 2265.157958984375 46.934814453125 2261.31005859375 43.09979248046875 C 2257.50830078125 39.31072998046875 2253.022216796875 35.64337158203125 2247.976806640625 32.19921875 C 2242.997802734375 28.80072021484375 2237.3330078125 25.52337646484375 2231.13916015625 22.45806884765625 C 2225.03662109375 19.43804931640625 2218.2470703125 16.5380859375 2210.958984375 13.838623046875 C 2196.749267578125 8.57513427734375 2180.0234375 3.84539794921875 2161.245849609375 -0.2196044921875 C 2143.166748046875 -4.13311767578125 2122.6220703125 -7.5516357421875 2100.1826171875 -10.3804931640625 C 2078.697509765625 -13.0889892578125 2054.783447265625 -15.34368896484375 2029.10400390625 -17.08197021484375 C 2004.684936523438 -18.73486328125 1977.847045898438 -19.97607421875 1949.335815429688 -20.77105712890625 C 1922.471069335938 -21.52044677734375 1893.15380859375 -21.89990234375 1862.198486328125 -21.8992919921875 M 1862.198486328125 -22.8994140625 C 2103.2802734375 -22.90435791015625 2279.905029296875 -0.40576171875 2279.905029296875 83.25482177734375 C 2279.905029296875 264.32421875 1601.088500976562 611.9368896484375 996.1181640625 779.752197265625 C 709.76904296875 859.1839599609375 439.9305419921875 898.3385009765625 235.1617431640625 898.3385009765625 C 7.315185546875 898.3385009765625 -139.976318359375 849.8812866210938 -139.976318359375 754.5169067382812 C -139.976318359375 658.3689575195312 -62.603515625 294.7604370117188 162.9822998046875 123.631591796875 C 299.0123291015625 20.43927001953125 497.759521484375 4.2080078125 687.344970703125 4.2080078125 C 774.3057861328125 4.2080078125 859.3033447265625 7.6195068359375 935.5 7.6195068359375 C 1213.445556640625 7.6195068359375 1581.499145507812 -22.89361572265625 1862.198486328125 -22.8994140625 Z" stroke="none" fill="#707070"/>
      </g>
    </g>
  </g>
</svg>
